<mxfile host="app.diagrams.net" agent="Mozilla/5.0 (Windows NT 10.0; Win64; x64; rv:130.0) Gecko/20100101 Firefox/130.0" version="24.7.14">
  <diagram name="PÃ¡gina-1" id="nWLG7lNp42WIRt6Slofu">
    <mxGraphModel grid="1" page="1" gridSize="10" guides="1" tooltips="1" connect="1" arrows="1" fold="1" pageScale="1" pageWidth="827" pageHeight="1169" math="0" shadow="0">
      <root>
        <mxCell id="0" />
        <mxCell id="1" parent="0" />
        <mxCell id="TXARMitppGOekWoNEKqO-1" value="Interfaz" style="shape=umlLifeline;perimeter=lifelinePerimeter;whiteSpace=wrap;html=1;container=1;collapsible=0;recursiveResize=0;outlineConnect=0;rounded=1;shadow=0;comic=0;labelBackgroundColor=none;strokeWidth=1;fontFamily=Verdana;fontSize=12;align=center;" vertex="1" parent="1">
          <mxGeometry x="400" y="40" width="100" height="560" as="geometry" />
        </mxCell>
        <mxCell id="TXARMitppGOekWoNEKqO-2" value="" style="html=1;points=[];perimeter=orthogonalPerimeter;rounded=0;shadow=0;comic=0;labelBackgroundColor=none;strokeWidth=1;fontFamily=Verdana;fontSize=12;align=center;" vertex="1" parent="TXARMitppGOekWoNEKqO-1">
          <mxGeometry x="45" y="100" width="10" height="20" as="geometry" />
        </mxCell>
        <mxCell id="TXARMitppGOekWoNEKqO-3" value="" style="html=1;points=[];perimeter=orthogonalPerimeter;rounded=0;shadow=0;comic=0;labelBackgroundColor=none;strokeWidth=1;fontFamily=Verdana;fontSize=12;align=center;" vertex="1" parent="TXARMitppGOekWoNEKqO-1">
          <mxGeometry x="45" y="130" width="10" height="30" as="geometry" />
        </mxCell>
        <mxCell id="CvasSqEUI8LzyYn9JF45-7" value="" style="html=1;points=[];perimeter=orthogonalPerimeter;rounded=0;shadow=0;comic=0;labelBackgroundColor=none;strokeWidth=1;fontFamily=Verdana;fontSize=12;align=center;" vertex="1" parent="TXARMitppGOekWoNEKqO-1">
          <mxGeometry x="45" y="214" width="10" height="30" as="geometry" />
        </mxCell>
        <mxCell id="CvasSqEUI8LzyYn9JF45-13" value="" style="html=1;points=[];perimeter=orthogonalPerimeter;rounded=0;shadow=0;comic=0;labelBackgroundColor=none;strokeWidth=1;fontFamily=Verdana;fontSize=12;align=center;" vertex="1" parent="TXARMitppGOekWoNEKqO-1">
          <mxGeometry x="45" y="296" width="10" height="24" as="geometry" />
        </mxCell>
        <mxCell id="TXARMitppGOekWoNEKqO-8" value="Capa de negocio" style="shape=umlLifeline;perimeter=lifelinePerimeter;whiteSpace=wrap;html=1;container=1;collapsible=0;recursiveResize=0;outlineConnect=0;rounded=1;shadow=0;comic=0;labelBackgroundColor=none;strokeWidth=1;fontFamily=Verdana;fontSize=12;align=center;" vertex="1" parent="1">
          <mxGeometry x="600" y="40" width="100" height="560" as="geometry" />
        </mxCell>
        <mxCell id="CvasSqEUI8LzyYn9JF45-11" value="" style="html=1;points=[];perimeter=orthogonalPerimeter;rounded=0;shadow=0;comic=0;labelBackgroundColor=none;strokeWidth=1;fontFamily=Verdana;fontSize=12;align=center;" vertex="1" parent="TXARMitppGOekWoNEKqO-8">
          <mxGeometry x="45" y="265" width="10" height="30" as="geometry" />
        </mxCell>
        <mxCell id="TXARMitppGOekWoNEKqO-13" value="Base de datos" style="shape=umlLifeline;perimeter=lifelinePerimeter;whiteSpace=wrap;html=1;container=1;collapsible=0;recursiveResize=0;outlineConnect=0;rounded=1;shadow=0;comic=0;labelBackgroundColor=none;strokeWidth=1;fontFamily=Verdana;fontSize=12;align=center;" vertex="1" parent="1">
          <mxGeometry x="820" y="40" width="100" height="560" as="geometry" />
        </mxCell>
        <mxCell id="CvasSqEUI8LzyYn9JF45-5" value="" style="html=1;points=[];perimeter=orthogonalPerimeter;rounded=0;shadow=0;comic=0;labelBackgroundColor=none;strokeWidth=1;fontFamily=Verdana;fontSize=12;align=center;" vertex="1" parent="TXARMitppGOekWoNEKqO-13">
          <mxGeometry x="45" y="185" width="10" height="30" as="geometry" />
        </mxCell>
        <mxCell id="TXARMitppGOekWoNEKqO-16" value="Usuario" style="shape=umlLifeline;perimeter=lifelinePerimeter;whiteSpace=wrap;html=1;container=1;collapsible=0;recursiveResize=0;outlineConnect=0;rounded=1;shadow=0;comic=0;labelBackgroundColor=none;strokeWidth=1;fontFamily=Verdana;fontSize=12;align=center;" vertex="1" parent="1">
          <mxGeometry x="190" y="40" width="100" height="560" as="geometry" />
        </mxCell>
        <mxCell id="TXARMitppGOekWoNEKqO-17" value="" style="html=1;points=[];perimeter=orthogonalPerimeter;rounded=0;shadow=0;comic=0;labelBackgroundColor=none;strokeWidth=1;fontFamily=Verdana;fontSize=12;align=center;" vertex="1" parent="TXARMitppGOekWoNEKqO-16">
          <mxGeometry x="45" y="100" width="10" height="220" as="geometry" />
        </mxCell>
        <mxCell id="TXARMitppGOekWoNEKqO-18" value="1.- Iniciar aplicacion" style="html=1;verticalAlign=bottom;endArrow=block;entryX=0;entryY=0;labelBackgroundColor=none;fontFamily=Verdana;fontSize=12;edgeStyle=elbowEdgeStyle;elbow=vertical;exitX=0.68;exitY=-0.003;exitDx=0;exitDy=0;exitPerimeter=0;" edge="1" parent="1">
          <mxGeometry relative="1" as="geometry">
            <mxPoint x="241.79999999999995" y="140" as="sourcePoint" />
            <mxPoint as="offset" />
            <mxPoint x="445" y="141.5" as="targetPoint" />
          </mxGeometry>
        </mxCell>
        <mxCell id="TXARMitppGOekWoNEKqO-22" value="3.- Sel. apartado de info" style="html=1;verticalAlign=bottom;endArrow=block;labelBackgroundColor=none;fontFamily=Verdana;fontSize=12;edgeStyle=elbowEdgeStyle;elbow=vertical;exitX=0.96;exitY=0.118;exitDx=0;exitDy=0;exitPerimeter=0;" edge="1" parent="1">
          <mxGeometry x="-0.0435" y="-20" relative="1" as="geometry">
            <mxPoint x="244.60000000000002" y="170.01" as="sourcePoint" />
            <mxPoint x="449.5" y="170" as="targetPoint" />
            <mxPoint as="offset" />
          </mxGeometry>
        </mxCell>
        <mxCell id="TXARMitppGOekWoNEKqO-24" value="2.- Desp. apartado menu" style="html=1;verticalAlign=bottom;endArrow=block;labelBackgroundColor=none;fontFamily=Verdana;fontSize=12;edgeStyle=elbowEdgeStyle;elbow=vertical;exitX=-0.08;exitY=1;exitDx=0;exitDy=0;exitPerimeter=0;" edge="1" parent="1" source="TXARMitppGOekWoNEKqO-2" target="TXARMitppGOekWoNEKqO-17">
          <mxGeometry x="0.0028" y="1" relative="1" as="geometry">
            <mxPoint x="454.6700000000001" y="161.09000000000003" as="sourcePoint" />
            <mxPoint x="270" y="160" as="targetPoint" />
            <mxPoint as="offset" />
            <Array as="points">
              <mxPoint x="340" y="160" />
            </Array>
          </mxGeometry>
        </mxCell>
        <mxCell id="TXARMitppGOekWoNEKqO-37" value="4.- Desp. diferentes apartados" style="html=1;verticalAlign=bottom;endArrow=block;labelBackgroundColor=none;fontFamily=Verdana;fontSize=12;edgeStyle=elbowEdgeStyle;elbow=vertical;exitX=1.057;exitY=0.321;exitDx=0;exitDy=0;exitPerimeter=0;" edge="1" parent="1">
          <mxGeometry x="0.0474" y="20" relative="1" as="geometry">
            <mxPoint x="449.99999999999994" y="200.5" as="sourcePoint" />
            <mxPoint x="1" as="offset" />
            <mxPoint x="250" y="200" as="targetPoint" />
            <Array as="points">
              <mxPoint x="544.4300000000001" y="200" />
            </Array>
          </mxGeometry>
        </mxCell>
        <mxCell id="CvasSqEUI8LzyYn9JF45-6" value="5.- Sel. icono de guia" style="html=1;verticalAlign=bottom;endArrow=block;labelBackgroundColor=none;fontFamily=Verdana;fontSize=12;edgeStyle=elbowEdgeStyle;elbow=vertical;exitX=0.96;exitY=0.118;exitDx=0;exitDy=0;exitPerimeter=0;" edge="1" parent="1" target="TXARMitppGOekWoNEKqO-13">
          <mxGeometry x="-0.0435" y="-20" relative="1" as="geometry">
            <mxPoint x="245.60000000000002" y="224.01" as="sourcePoint" />
            <mxPoint x="450.5" y="224" as="targetPoint" />
            <mxPoint as="offset" />
          </mxGeometry>
        </mxCell>
        <mxCell id="CvasSqEUI8LzyYn9JF45-8" value="6.- Selecciona la informacion" style="html=1;verticalAlign=bottom;endArrow=block;labelBackgroundColor=none;fontFamily=Verdana;fontSize=12;edgeStyle=elbowEdgeStyle;elbow=vertical;exitX=1.057;exitY=0.321;exitDx=0;exitDy=0;exitPerimeter=0;" edge="1" parent="1" target="TXARMitppGOekWoNEKqO-1">
          <mxGeometry x="0.0474" y="20" relative="1" as="geometry">
            <mxPoint x="868" y="254.5" as="sourcePoint" />
            <mxPoint x="1" as="offset" />
            <mxPoint x="658" y="254" as="targetPoint" />
            <Array as="points">
              <mxPoint x="962.4300000000001" y="254" />
            </Array>
          </mxGeometry>
        </mxCell>
        <mxCell id="CvasSqEUI8LzyYn9JF45-10" value="7.- Sist. muestra opc. de guia" style="html=1;verticalAlign=bottom;endArrow=block;labelBackgroundColor=none;fontFamily=Verdana;fontSize=12;edgeStyle=elbowEdgeStyle;elbow=vertical;exitX=-0.08;exitY=1;exitDx=0;exitDy=0;exitPerimeter=0;" edge="1" parent="1">
          <mxGeometry x="0.0028" y="1" relative="1" as="geometry">
            <mxPoint x="444" y="283" as="sourcePoint" />
            <mxPoint x="245" y="283" as="targetPoint" />
            <mxPoint as="offset" />
            <Array as="points">
              <mxPoint x="340" y="283" />
            </Array>
          </mxGeometry>
        </mxCell>
        <mxCell id="CvasSqEUI8LzyYn9JF45-12" value="8.- Selecciona una opcion" style="html=1;verticalAlign=bottom;endArrow=block;labelBackgroundColor=none;fontFamily=Verdana;fontSize=12;edgeStyle=elbowEdgeStyle;elbow=vertical;exitX=0.96;exitY=0.118;exitDx=0;exitDy=0;exitPerimeter=0;" edge="1" parent="1" target="TXARMitppGOekWoNEKqO-8">
          <mxGeometry x="-0.0435" y="-20" relative="1" as="geometry">
            <mxPoint x="243.60000000000002" y="303.01" as="sourcePoint" />
            <mxPoint x="448.5" y="303" as="targetPoint" />
            <mxPoint as="offset" />
          </mxGeometry>
        </mxCell>
        <mxCell id="CvasSqEUI8LzyYn9JF45-14" value="9.- Recopila los datos" style="html=1;verticalAlign=bottom;endArrow=block;labelBackgroundColor=none;fontFamily=Verdana;fontSize=12;edgeStyle=elbowEdgeStyle;elbow=vertical;exitX=1.057;exitY=0.321;exitDx=0;exitDy=0;exitPerimeter=0;entryX=0.5;entryY=0.3;entryDx=0;entryDy=0;entryPerimeter=0;" edge="1" parent="1">
          <mxGeometry x="0.0474" y="20" relative="1" as="geometry">
            <mxPoint x="656" y="335.5" as="sourcePoint" />
            <mxPoint x="1" as="offset" />
            <mxPoint x="446" y="335" as="targetPoint" />
            <Array as="points">
              <mxPoint x="750.4300000000001" y="335" />
            </Array>
          </mxGeometry>
        </mxCell>
        <mxCell id="CvasSqEUI8LzyYn9JF45-15" value="10.- Sist. muestra la informacion" style="html=1;verticalAlign=bottom;endArrow=block;labelBackgroundColor=none;fontFamily=Verdana;fontSize=12;edgeStyle=elbowEdgeStyle;elbow=vertical;exitX=1.057;exitY=0.321;exitDx=0;exitDy=0;exitPerimeter=0;entryX=0.5;entryY=0.3;entryDx=0;entryDy=0;entryPerimeter=0;" edge="1" parent="1">
          <mxGeometry x="0.0474" y="20" relative="1" as="geometry">
            <mxPoint x="452" y="360.5" as="sourcePoint" />
            <mxPoint x="1" as="offset" />
            <mxPoint x="242" y="360" as="targetPoint" />
            <Array as="points">
              <mxPoint x="546.4300000000001" y="360" />
            </Array>
          </mxGeometry>
        </mxCell>
      </root>
    </mxGraphModel>
  </diagram>
</mxfile>
